<mxfile host="Electron" modified="2024-05-03T13:19:25.718Z" agent="Mozilla/5.0 (Windows NT 10.0; Win64; x64) AppleWebKit/537.36 (KHTML, like Gecko) draw.io/24.2.5 Chrome/120.0.6099.109 Electron/28.1.0 Safari/537.36" etag="pvUOYD3N1x4ZnGUoZjsi" version="24.2.5" type="device">
  <diagram name="Page-1" id="2YBvvXClWsGukQMizWep">
    <mxGraphModel dx="1104" dy="858" grid="1" gridSize="10" guides="1" tooltips="1" connect="1" arrows="1" fold="1" page="1" pageScale="1" pageWidth="1654" pageHeight="2336" math="0" shadow="0">
      <root>
        <mxCell id="0" />
        <mxCell id="1" parent="0" />
        <mxCell id="dppu2tPk6B2JesYer8dn-18" value="" style="html=1;points=[[0,0,0,0,5],[0,1,0,0,-5],[1,0,0,0,5],[1,1,0,0,-5]];perimeter=orthogonalPerimeter;outlineConnect=0;targetShapes=umlLifeline;portConstraint=eastwest;newEdgeStyle={&quot;curved&quot;:0,&quot;rounded&quot;:0};" parent="1" vertex="1">
          <mxGeometry x="540" y="400" width="10" height="590" as="geometry" />
        </mxCell>
        <mxCell id="dppu2tPk6B2JesYer8dn-19" value="" style="html=1;points=[[0,0,0,0,5],[0,1,0,0,-5],[1,0,0,0,5],[1,1,0,0,-5]];perimeter=orthogonalPerimeter;outlineConnect=0;targetShapes=umlLifeline;portConstraint=eastwest;newEdgeStyle={&quot;curved&quot;:0,&quot;rounded&quot;:0};shadow=0;" parent="1" vertex="1">
          <mxGeometry x="410" y="446" width="10" height="140" as="geometry" />
        </mxCell>
        <mxCell id="dppu2tPk6B2JesYer8dn-6" value="" style="html=1;points=[[0,0,0,0,5],[0,1,0,0,-5],[1,0,0,0,5],[1,1,0,0,-5]];perimeter=orthogonalPerimeter;outlineConnect=0;targetShapes=umlLifeline;portConstraint=eastwest;newEdgeStyle={&quot;curved&quot;:0,&quot;rounded&quot;:0};" parent="1" vertex="1">
          <mxGeometry x="270" y="400" width="10" height="580" as="geometry" />
        </mxCell>
        <mxCell id="dppu2tPk6B2JesYer8dn-1" value="alt Проверка данных" style="shape=umlFrame;whiteSpace=wrap;html=1;pointerEvents=0;width=140;height=20;" parent="1" vertex="1">
          <mxGeometry x="110" y="420" width="520" height="200" as="geometry" />
        </mxCell>
        <mxCell id="dppu2tPk6B2JesYer8dn-7" value="Неавторизованный&lt;div&gt;пользователь&lt;/div&gt;" style="shape=umlActor;verticalLabelPosition=bottom;verticalAlign=top;html=1;" parent="1" vertex="1">
          <mxGeometry x="260" y="300" width="30" height="60" as="geometry" />
        </mxCell>
        <mxCell id="dppu2tPk6B2JesYer8dn-9" value="&lt;div&gt;&lt;br&gt;&lt;/div&gt;" style="endArrow=none;endSize=12;dashed=1;html=1;rounded=0;endFill=0;exitX=0.002;exitY=0.646;exitDx=0;exitDy=0;exitPerimeter=0;entryX=1;entryY=0.644;entryDx=0;entryDy=0;entryPerimeter=0;elbow=horizontal;" parent="1" source="dppu2tPk6B2JesYer8dn-1" target="dppu2tPk6B2JesYer8dn-1" edge="1">
          <mxGeometry width="160" relative="1" as="geometry">
            <mxPoint x="210" y="550" as="sourcePoint" />
            <mxPoint x="370" y="550" as="targetPoint" />
          </mxGeometry>
        </mxCell>
        <mxCell id="dppu2tPk6B2JesYer8dn-10" value="&lt;span style=&quot;font-weight: normal;&quot;&gt;[Данные валидны]&lt;/span&gt;" style="text;align=center;fontStyle=1;verticalAlign=middle;spacingLeft=3;spacingRight=3;strokeColor=none;rotatable=0;points=[[0,0.5],[1,0.5]];portConstraint=eastwest;html=1;" parent="1" vertex="1">
          <mxGeometry x="150" y="450" width="80" height="26" as="geometry" />
        </mxCell>
        <mxCell id="dppu2tPk6B2JesYer8dn-11" value="&lt;span style=&quot;font-weight: normal;&quot;&gt;[Данные не валидны]&lt;/span&gt;" style="text;align=center;fontStyle=1;verticalAlign=middle;spacingLeft=3;spacingRight=3;strokeColor=none;rotatable=0;points=[[0,0.5],[1,0.5]];portConstraint=eastwest;html=1;" parent="1" vertex="1">
          <mxGeometry x="150" y="560" width="80" height="26" as="geometry" />
        </mxCell>
        <mxCell id="dppu2tPk6B2JesYer8dn-14" value="&lt;span style=&quot;font-weight: normal;&quot;&gt;Форма&amp;nbsp;&lt;/span&gt;&lt;div&gt;&lt;span style=&quot;font-weight: normal;&quot;&gt;авторизации&lt;/span&gt;&lt;/div&gt;" style="text;align=center;fontStyle=1;verticalAlign=middle;spacingLeft=3;spacingRight=3;strokeColor=none;rotatable=0;points=[[0,0.5],[1,0.5]];portConstraint=eastwest;html=1;" parent="1" vertex="1">
          <mxGeometry x="375" y="340" width="80" height="26" as="geometry" />
        </mxCell>
        <mxCell id="dppu2tPk6B2JesYer8dn-15" value="Администратор" style="shape=umlActor;verticalLabelPosition=bottom;verticalAlign=top;html=1;" parent="1" vertex="1">
          <mxGeometry x="530" y="300" width="30" height="60" as="geometry" />
        </mxCell>
        <mxCell id="dppu2tPk6B2JesYer8dn-13" value="" style="shape=umlLifeline;perimeter=lifelinePerimeter;whiteSpace=wrap;html=1;container=1;dropTarget=0;collapsible=0;recursiveResize=0;outlineConnect=0;portConstraint=eastwest;newEdgeStyle={&quot;curved&quot;:0,&quot;rounded&quot;:0};participant=umlControl;" parent="1" vertex="1">
          <mxGeometry x="395" y="300" width="40" height="620" as="geometry" />
        </mxCell>
        <mxCell id="dppu2tPk6B2JesYer8dn-20" value="Ошибка входа" style="endArrow=open;endSize=12;dashed=1;html=1;rounded=0;" parent="1" edge="1">
          <mxGeometry width="160" relative="1" as="geometry">
            <mxPoint x="420" y="572.72" as="sourcePoint" />
            <mxPoint x="540" y="572.72" as="targetPoint" />
            <Array as="points">
              <mxPoint x="480" y="572.72" />
            </Array>
          </mxGeometry>
        </mxCell>
        <mxCell id="dppu2tPk6B2JesYer8dn-21" value="Ошибка входа" style="endArrow=open;endSize=12;dashed=1;html=1;rounded=0;" parent="1" source="dppu2tPk6B2JesYer8dn-19" target="dppu2tPk6B2JesYer8dn-6" edge="1">
          <mxGeometry width="160" relative="1" as="geometry">
            <mxPoint x="315" y="572.72" as="sourcePoint" />
            <mxPoint x="435" y="572.72" as="targetPoint" />
            <Array as="points">
              <mxPoint x="375" y="572.72" />
            </Array>
          </mxGeometry>
        </mxCell>
        <mxCell id="dppu2tPk6B2JesYer8dn-23" value="Входные данные" style="html=1;verticalAlign=bottom;endArrow=block;curved=0;rounded=0;" parent="1" target="dppu2tPk6B2JesYer8dn-19" edge="1">
          <mxGeometry width="80" relative="1" as="geometry">
            <mxPoint x="280" y="462.72" as="sourcePoint" />
            <mxPoint x="400" y="462.72" as="targetPoint" />
          </mxGeometry>
        </mxCell>
        <mxCell id="dppu2tPk6B2JesYer8dn-24" value="Входные данные" style="html=1;verticalAlign=bottom;endArrow=block;curved=0;rounded=0;" parent="1" edge="1">
          <mxGeometry width="80" relative="1" as="geometry">
            <mxPoint x="540" y="462.72" as="sourcePoint" />
            <mxPoint x="420" y="462.72" as="targetPoint" />
          </mxGeometry>
        </mxCell>
        <mxCell id="dppu2tPk6B2JesYer8dn-29" value="" style="html=1;verticalAlign=bottom;endArrow=block;curved=0;rounded=0;entryX=0;entryY=0;entryDx=0;entryDy=5;entryPerimeter=0;" parent="1" target="dppu2tPk6B2JesYer8dn-26" edge="1">
          <mxGeometry width="80" relative="1" as="geometry">
            <mxPoint x="280" y="480" as="sourcePoint" />
            <mxPoint x="360" y="480" as="targetPoint" />
          </mxGeometry>
        </mxCell>
        <mxCell id="dppu2tPk6B2JesYer8dn-30" value="&lt;span style=&quot;font-weight: normal;&quot;&gt;Доступ&lt;/span&gt;" style="text;align=center;fontStyle=1;verticalAlign=middle;spacingLeft=3;spacingRight=3;strokeColor=none;rotatable=0;points=[[0,0.5],[1,0.5]];portConstraint=eastwest;html=1;" parent="1" vertex="1">
          <mxGeometry x="630" y="480" width="80" height="26" as="geometry" />
        </mxCell>
        <mxCell id="dppu2tPk6B2JesYer8dn-32" value="" style="html=1;verticalAlign=bottom;endArrow=block;curved=0;rounded=0;entryX=0;entryY=0;entryDx=0;entryDy=5;entryPerimeter=0;" parent="1" edge="1">
          <mxGeometry width="80" relative="1" as="geometry">
            <mxPoint x="420" y="521" as="sourcePoint" />
            <mxPoint x="720" y="520.5" as="targetPoint" />
          </mxGeometry>
        </mxCell>
        <mxCell id="dppu2tPk6B2JesYer8dn-33" value="&lt;span style=&quot;font-weight: normal;&quot;&gt;Доступ&lt;/span&gt;" style="text;align=center;fontStyle=1;verticalAlign=middle;spacingLeft=3;spacingRight=3;strokeColor=none;rotatable=0;points=[[0,0.5],[1,0.5]];portConstraint=eastwest;html=1;" parent="1" vertex="1">
          <mxGeometry x="630" y="520" width="80" height="26" as="geometry" />
        </mxCell>
        <mxCell id="dppu2tPk6B2JesYer8dn-35" value="alt Проверка данных" style="shape=umlFrame;whiteSpace=wrap;html=1;pointerEvents=0;width=140;height=20;" parent="1" vertex="1">
          <mxGeometry x="395" y="640" width="520" height="200" as="geometry" />
        </mxCell>
        <mxCell id="dppu2tPk6B2JesYer8dn-36" value="&lt;div&gt;&lt;br&gt;&lt;/div&gt;" style="endArrow=none;endSize=12;dashed=1;html=1;rounded=0;endFill=0;exitX=0.002;exitY=0.646;exitDx=0;exitDy=0;exitPerimeter=0;entryX=1;entryY=0.644;entryDx=0;entryDy=0;entryPerimeter=0;elbow=horizontal;" parent="1" source="dppu2tPk6B2JesYer8dn-35" target="dppu2tPk6B2JesYer8dn-35" edge="1">
          <mxGeometry width="160" relative="1" as="geometry">
            <mxPoint x="495" y="770" as="sourcePoint" />
            <mxPoint x="655" y="770" as="targetPoint" />
          </mxGeometry>
        </mxCell>
        <mxCell id="dppu2tPk6B2JesYer8dn-37" value="&lt;span style=&quot;font-weight: normal;&quot;&gt;[Данные валидны]&lt;/span&gt;" style="text;align=center;fontStyle=1;verticalAlign=middle;spacingLeft=3;spacingRight=3;strokeColor=none;rotatable=0;points=[[0,0.5],[1,0.5]];portConstraint=eastwest;html=1;" parent="1" vertex="1">
          <mxGeometry x="435" y="670" width="80" height="26" as="geometry" />
        </mxCell>
        <mxCell id="dppu2tPk6B2JesYer8dn-38" value="&lt;span style=&quot;font-weight: normal;&quot;&gt;[Данные не валидны]&lt;/span&gt;" style="text;align=center;fontStyle=1;verticalAlign=middle;spacingLeft=3;spacingRight=3;strokeColor=none;rotatable=0;points=[[0,0.5],[1,0.5]];portConstraint=eastwest;html=1;" parent="1" vertex="1">
          <mxGeometry x="435" y="780" width="80" height="26" as="geometry" />
        </mxCell>
        <mxCell id="dppu2tPk6B2JesYer8dn-42" value="" style="html=1;points=[[0,0,0,0,5],[0,1,0,0,-5],[1,0,0,0,5],[1,1,0,0,-5]];perimeter=orthogonalPerimeter;outlineConnect=0;targetShapes=umlLifeline;portConstraint=eastwest;newEdgeStyle={&quot;curved&quot;:0,&quot;rounded&quot;:0};" parent="1" vertex="1">
          <mxGeometry x="850" y="640" width="10" height="200" as="geometry" />
        </mxCell>
        <mxCell id="dppu2tPk6B2JesYer8dn-43" value="Товар добавлен" style="endArrow=open;endSize=12;dashed=1;html=1;rounded=0;" parent="1" source="dppu2tPk6B2JesYer8dn-42" edge="1">
          <mxGeometry width="160" relative="1" as="geometry">
            <mxPoint x="680" y="720.28" as="sourcePoint" />
            <mxPoint x="550" y="720.28" as="targetPoint" />
            <Array as="points">
              <mxPoint x="645" y="720" />
            </Array>
          </mxGeometry>
        </mxCell>
        <mxCell id="dppu2tPk6B2JesYer8dn-44" value="Ошибка добавления" style="endArrow=open;endSize=12;dashed=1;html=1;rounded=0;" parent="1" edge="1">
          <mxGeometry width="160" relative="1" as="geometry">
            <mxPoint x="850" y="806" as="sourcePoint" />
            <mxPoint x="550" y="806.28" as="targetPoint" />
            <Array as="points">
              <mxPoint x="645" y="806" />
            </Array>
          </mxGeometry>
        </mxCell>
        <mxCell id="dppu2tPk6B2JesYer8dn-46" value="" style="shape=umlLifeline;perimeter=lifelinePerimeter;whiteSpace=wrap;html=1;container=1;dropTarget=0;collapsible=0;recursiveResize=0;outlineConnect=0;portConstraint=eastwest;newEdgeStyle={&quot;curved&quot;:0,&quot;rounded&quot;:0};participant=umlControl;" parent="1" vertex="1">
          <mxGeometry x="835" y="300" width="40" height="690" as="geometry" />
        </mxCell>
        <mxCell id="dppu2tPk6B2JesYer8dn-26" value="" style="html=1;points=[[0,0,0,0,5],[0,1,0,0,-5],[1,0,0,0,5],[1,1,0,0,-5]];perimeter=orthogonalPerimeter;outlineConnect=0;targetShapes=umlLifeline;portConstraint=eastwest;newEdgeStyle={&quot;curved&quot;:0,&quot;rounded&quot;:0};" parent="1" vertex="1">
          <mxGeometry x="720" y="473.74" width="10" height="516.26" as="geometry" />
        </mxCell>
        <mxCell id="dppu2tPk6B2JesYer8dn-25" value="Главная страница" style="shape=umlLifeline;perimeter=lifelinePerimeter;whiteSpace=wrap;html=1;container=1;dropTarget=0;collapsible=0;recursiveResize=0;outlineConnect=0;portConstraint=eastwest;newEdgeStyle={&quot;curved&quot;:0,&quot;rounded&quot;:0};" parent="1" vertex="1">
          <mxGeometry x="675" y="330" width="100" height="660" as="geometry" />
        </mxCell>
        <mxCell id="dppu2tPk6B2JesYer8dn-41" value="" style="html=1;verticalAlign=bottom;endArrow=block;curved=0;rounded=0;entryX=0;entryY=0;entryDx=0;entryDy=5;entryPerimeter=0;" parent="1" edge="1">
          <mxGeometry width="80" relative="1" as="geometry">
            <mxPoint x="550" y="690.5" as="sourcePoint" />
            <mxPoint x="850" y="690" as="targetPoint" />
          </mxGeometry>
        </mxCell>
        <mxCell id="dppu2tPk6B2JesYer8dn-47" value="" style="html=1;verticalAlign=bottom;endArrow=block;curved=0;rounded=0;entryX=0;entryY=0;entryDx=0;entryDy=5;entryPerimeter=0;exitX=0.1;exitY=0.064;exitDx=0;exitDy=0;exitPerimeter=0;" parent="1" edge="1" source="dppu2tPk6B2JesYer8dn-48">
          <mxGeometry width="80" relative="1" as="geometry">
            <mxPoint x="280" y="881" as="sourcePoint" />
            <mxPoint x="720" y="880" as="targetPoint" />
          </mxGeometry>
        </mxCell>
        <mxCell id="dppu2tPk6B2JesYer8dn-48" value="&lt;span style=&quot;font-weight: normal;&quot;&gt;Заказ товара&lt;/span&gt;" style="text;align=center;fontStyle=1;verticalAlign=middle;spacingLeft=3;spacingRight=3;strokeColor=none;rotatable=0;points=[[0,0.5],[1,0.5]];portConstraint=eastwest;html=1;" parent="1" vertex="1">
          <mxGeometry x="410" y="880" width="80" height="26" as="geometry" />
        </mxCell>
        <mxCell id="dppu2tPk6B2JesYer8dn-49" value="&lt;span style=&quot;font-weight: normal;&quot;&gt;Форма добавления&amp;nbsp;&lt;/span&gt;&lt;div&gt;&lt;span style=&quot;font-weight: normal;&quot;&gt;товара&lt;/span&gt;&lt;/div&gt;" style="text;align=center;fontStyle=1;verticalAlign=middle;spacingLeft=3;spacingRight=3;strokeColor=none;rotatable=0;points=[[0,0.5],[1,0.5]];portConstraint=eastwest;html=1;" parent="1" vertex="1">
          <mxGeometry x="810" y="340" width="80" height="26" as="geometry" />
        </mxCell>
        <mxCell id="dppu2tPk6B2JesYer8dn-52" value="" style="html=1;verticalAlign=bottom;endArrow=block;curved=0;rounded=0;" parent="1" source="dppu2tPk6B2JesYer8dn-26" edge="1">
          <mxGeometry width="80" relative="1" as="geometry">
            <mxPoint x="450" y="959.9999999999999" as="sourcePoint" />
            <mxPoint x="280" y="959.9999999999999" as="targetPoint" />
          </mxGeometry>
        </mxCell>
        <mxCell id="dppu2tPk6B2JesYer8dn-53" value="&lt;span style=&quot;font-weight: normal;&quot;&gt;Выход из приложения&lt;/span&gt;" style="text;align=center;fontStyle=1;verticalAlign=middle;spacingLeft=3;spacingRight=3;strokeColor=none;rotatable=0;points=[[0,0.5],[1,0.5]];portConstraint=eastwest;html=1;" parent="1" vertex="1">
          <mxGeometry x="430" y="964" width="80" height="26" as="geometry" />
        </mxCell>
      </root>
    </mxGraphModel>
  </diagram>
</mxfile>
